<svg width="100" height="60" viewBox="0 0 100 60" fill="none" xmlns="http://www.w3.org/2000/svg">
<path d="M98.8759 22.9866C85.245 8.41821 68.0363 1.04067 50.7628 0.843213C50.6206 0.839502 50.4777 0.839112 50.3349 0.837549C50.2392 0.837159 50.1437 0.833838 50.048 0.833838C50.032 0.833838 50.0159 0.833252 49.9997 0.833252C49.7265 0.833252 49.4544 0.837744 49.1829 0.845165C31.9634 1.08501 14.7859 8.45942 1.13117 22.9788C-0.44539 24.6551 -0.364335 27.292 1.31184 28.8686C2.9882 30.4452 5.62512 30.3641 7.20168 28.6879C12.5591 22.9913 18.5056 18.5417 24.7816 15.3387C22.272 19.6463 20.8331 24.6547 20.8331 30.0002C20.8331 46.1098 33.8904 59.1669 49.9997 59.1669C66.1091 59.1669 79.1665 46.1096 79.1665 30C79.1665 24.635 77.7167 19.6094 75.19 15.2911C81.4823 18.4961 87.4372 22.9584 92.7907 28.6801C94.363 30.3604 96.9997 30.4481 98.68 28.876C100.36 27.3038 100.448 24.667 98.8759 22.9866ZM70.8333 30C70.8333 41.5073 61.5071 50.8334 49.9999 50.8334C38.4927 50.8334 29.1665 41.5073 29.1665 30C29.1665 18.6934 38.1708 9.49302 49.4007 9.17583C49.6152 9.17329 49.8294 9.16724 50.0439 9.16724C50.0812 9.16724 50.1181 9.16841 50.1554 9.1686C50.2859 9.1688 50.4161 9.17251 50.5466 9.17388C61.8011 9.46372 70.8333 18.6756 70.8333 30Z" fill="white"/>
<path d="M49.9999 13.3335C40.7903 13.3335 33.3333 20.7907 33.3333 30.0001C33.3333 32.3013 35.1987 34.1667 37.4999 34.1667C39.801 34.1667 41.6665 32.3013 41.6665 30.0001C41.6665 25.3929 45.3926 21.6667 49.9999 21.6667C52.301 21.6667 54.1665 19.8013 54.1665 17.5001C54.1665 15.1989 52.301 13.3335 49.9999 13.3335Z" fill="white"/>
</svg>
