<svg width="75" height="83" viewBox="0 0 75 83" fill="none" xmlns="http://www.w3.org/2000/svg">
<path d="M10.6032 48.8317C10.6035 48.8148 10.6035 48.7981 10.6032 48.7813V44.9314H19.5274V48.3355C19.5274 51.9751 22.4885 54.9362 26.1282 54.9362H73.3884C74.045 54.9362 74.635 54.5346 74.8757 53.9236C75.1162 53.3128 74.959 52.6168 74.4787 52.1688L54.8106 33.8236L74.4785 15.4783C74.9588 15.0303 75.1161 14.3343 74.8755 13.7235C74.6348 13.1125 74.0448 12.7109 73.3882 12.7109H42.2384V4.30476C42.2384 3.42186 41.5228 2.70626 40.6399 2.70626H26.1282C26.1006 2.70626 26.0727 2.70644 26.0454 2.70679H10.6032C10.6032 2.70679 10.6033 2.47963 10.6033 2.47199C10.6033 0.831753 8.82172 0 5.30839 0C1.79489 0 0.01345 0.831753 0.01345 2.47199V12.4397C0.0130948 12.4564 0.0130948 12.4733 0.01345 12.4901V22.6957C0.0130948 22.7124 0.0130948 22.7293 0.01345 22.7461V32.9517C0.0130948 32.9684 0.0130948 32.9852 0.01345 33.0021V43.2073C0.0130948 43.2242 0.0130948 43.2412 0.01345 43.2583V53.4638C0.0130948 53.4805 0.0130948 53.4974 0.01345 53.5142V63.72C0.0130948 63.7366 0.0130948 63.7535 0.01345 63.7704V73.9758C0.0130948 73.9925 0.0130948 74.0093 0.01345 74.0262V80.5287C0.01345 82.1688 1.79489 83.0005 5.30857 83.0005C8.8219 83.0005 10.6035 82.169 10.6035 80.5287C10.6035 80.5223 10.6035 80.5154 10.6033 80.5083M7.40616 79.6224C6.95023 79.7144 6.23517 79.803 5.30839 79.803C4.38144 79.803 3.66638 79.7142 3.21027 79.6222V74.8791L7.40598 72.2234V79.6224H7.40616ZM7.40616 68.44L3.21045 71.0956V64.6233L7.40616 61.9676V68.44ZM7.40616 58.184L3.21045 60.8396V54.3671L7.40616 51.7115V58.184ZM7.40616 47.928L3.21045 50.5837V44.111L7.40616 41.4553V47.928ZM7.40616 37.6719L3.21045 40.3275V33.8554L7.40616 31.1997V37.6719ZM7.40616 27.4159L3.21045 30.0717V23.5992L7.40616 20.9436V27.4159ZM7.40616 17.1599L3.21045 19.8155V13.3432L7.40616 10.6876V17.1599ZM7.40616 6.9041L3.21045 9.55974V3.37781C3.66638 3.28581 4.38144 3.197 5.30839 3.197C6.23499 3.197 6.95005 3.28581 7.40616 3.37781V6.9041ZM19.5274 9.30718V41.7344H10.6032V38.575C10.6035 38.5585 10.6035 38.5418 10.6032 38.5253V28.3196C10.6035 28.3027 10.6035 28.286 10.6032 28.2691V18.0631C10.6035 18.0465 10.6035 18.0298 10.6032 18.0133V7.80779C10.6035 7.79091 10.6035 7.77422 10.6032 7.75734V5.9038H20.4743C19.8734 6.89806 19.5274 8.06319 19.5274 9.30718ZM26.0687 5.9038H28.7898C28.8035 5.9038 28.817 5.90362 28.8307 5.90326H39.0412V12.7109H26.1282C24.2513 12.7109 22.7244 11.184 22.7244 9.307C22.7244 7.45008 24.2192 5.93559 26.0687 5.9038ZM26.1282 51.7392C24.2513 51.7392 22.7244 50.2121 22.7244 48.3351V14.9607C23.7189 15.5616 24.8838 15.9077 26.1282 15.9077H69.331L51.3768 32.6545C51.0527 32.957 50.8687 33.3802 50.8687 33.8236C50.8687 34.2669 51.0527 34.6901 51.3768 34.9926L69.331 51.7394H26.1282V51.7392Z" fill="white"/>
</svg>
